<?xml version="1.0" encoding="UTF-8"?>
<svg version="1.1" xmlns="http://www.w3.org/2000/svg" width="640" height="160">
<path d="M0 0 C6.93 0 13.86 0 21 0 C28.83076923 7.83076923 28.83076923 7.83076923 31.375 10.8125 C34.04676542 13.90959131 36.75780378 16.964993 39.5 20 C42.76390848 23.61676345 45.98790949 27.26389608 49.1875 30.9375 C51.27211164 33.30964429 53.38428644 35.65556065 55.5 38 C58.76145125 41.61404058 61.98359155 45.25789354 65.1796875 48.9296875 C68.01455369 52.15389154 70.90271419 55.32970335 73.7890625 58.5078125 C76.25351489 61.28576414 78.6226357 64.14716284 81 67 C81.33 44.89 81.66 22.78 82 0 C87.94 0 93.88 0 100 0 C100 29.7 100 59.4 100 90 C79 90 79 90 73.625 86 C72.36837277 84.36943714 71.15662541 82.70295769 70 81 C68.84960688 79.67321327 67.68336921 78.35996086 66.5 77.0625 C65.943125 76.41410156 65.38625 75.76570313 64.8125 75.09765625 C62.74149659 72.70082688 60.62396782 70.34999818 58.5 68 C55.23609152 64.38323655 52.01209051 60.73610392 48.8125 57.0625 C46.72788836 54.69035571 44.61571356 52.34443935 42.5 50 C39.24223507 46.39004427 36.02286993 42.7511221 32.83203125 39.08203125 C29.9011905 35.75124635 26.90771052 32.4771284 23.91796875 29.19921875 C22 27 22 27 20 24 C19.67 45.78 19.34 67.56 19 90 C12.73 90 6.46 90 0 90 C0 60.3 0 30.6 0 0 Z " fill="#000000" transform="translate(147,37)"/>
<path d="M0 0 C14.1075 -0.12375 14.1075 -0.12375 28.5 -0.25 C31.43455078 -0.28641602 34.36910156 -0.32283203 37.39257812 -0.36035156 C56.87318187 -0.5018177 74.25657875 -0.10479952 89.3125 13.75 C98.14779465 23.08506889 101.09524152 35.4281198 101 48 C99.55763228 60.83837214 95.55460252 71.13857453 86 80 C74.60564511 88.84185603 61.0882582 90.6170228 47.0703125 90.390625 C45.86560303 90.38659668 44.66089355 90.38256836 43.41967773 90.37841797 C38.98795999 90.35774165 34.55646207 90.3018998 30.125 90.25 C20.18375 90.1675 10.2425 90.085 0 90 C0 60.3 0 30.6 0 0 Z M18 16 C18 35.14 18 54.28 18 74 C24.166875 74.0825 30.33375 74.165 36.6875 74.25 C38.60522217 74.28641602 40.52294434 74.32283203 42.4987793 74.36035156 C53.66275479 74.48387582 64.78369478 74.28954493 74.0625 67.1875 C79.81008518 61.5540108 82.07879421 55.36793636 82.29223633 47.41552734 C82.3626147 40.1114391 82.07987064 34.31634458 78 28 C77.34 26.9275 76.68 25.855 76 24.75 C70.15754522 18.27641585 60.30195839 16.43188161 52 16 C46.14427379 15.88909332 40.29406888 15.90600858 34.4375 15.9375 C29.013125 15.958125 23.58875 15.97875 18 16 Z " fill="#000000" transform="translate(262,37)"/>
<path d="M0 0 C10.3125 -0.061875 20.625 -0.12375 31.25 -0.1875 C36.09800293 -0.22846802 36.09800293 -0.22846802 41.04394531 -0.27026367 C43.63866809 -0.27903497 46.23339503 -0.28667738 48.828125 -0.29296875 C49.4851239 -0.30080887 50.1421228 -0.30864899 50.81903076 -0.31672668 C63.32848529 -0.45827974 75.24204872 0.4230706 85 9 C92.5183145 16.96347786 94.62212564 24.68229269 94.34375 35.52734375 C93.5689332 43.35475436 90.74642443 49.20799884 84.94921875 54.52734375 C81.82707955 56.88615433 78.5795651 58.43001531 75 60 C76.51909481 63.24927972 78.36758672 66.11414565 80.40625 69.0625 C81.06753906 70.02414063 81.72882813 70.98578125 82.41015625 71.9765625 C83.09980469 72.97429687 83.78945313 73.97203125 84.5 75 C85.86691569 76.97755654 87.23159259 78.95666291 88.59375 80.9375 C89.19896484 81.81277344 89.80417969 82.68804687 90.42773438 83.58984375 C91.79204812 85.68122656 92.9439632 87.74118183 94 90 C75.80418748 92.50412135 75.80418748 92.50412135 70.10400391 88.75195312 C66.72899218 85.17879346 64.59875837 80.82979606 62.37060547 76.48681641 C59.82917881 71.87567071 56.6451119 67.69708037 53.5625 63.4375 C49.75337612 58.08856163 46.14982081 52.76564251 43 47 C43.56920166 46.95512451 44.13840332 46.91024902 44.72485352 46.86401367 C47.33857798 46.65087051 49.95036884 46.41932436 52.5625 46.1875 C53.45775391 46.11724609 54.35300781 46.04699219 55.27539062 45.97460938 C61.86672965 45.3710069 67.34807294 44.44256439 72.375 39.8125 C75.26366675 34.81288447 75.28963956 30.63251387 74.3125 25.125 C73.31311553 21.9874522 73.31311553 21.9874522 71.1875 20.6875 C70.1046875 20.3471875 70.1046875 20.3471875 69 20 C67.824375 19.4740625 67.824375 19.4740625 66.625 18.9375 C60.76737378 16.84549063 54.81077799 16.80517256 48.6640625 16.68359375 C47.88377686 16.66494263 47.10349121 16.6462915 46.29956055 16.6270752 C43.4081463 16.55920888 40.5165612 16.49878616 37.625 16.4375 C31.14875 16.293125 24.6725 16.14875 18 16 C18 40.42 18 64.84 18 90 C12.06 90 6.12 90 0 90 C0 60.3 0 30.6 0 0 Z " fill="#000000" transform="translate(378,37)"/>
<path d="M0 0 C19.15177135 -2.08762214 19.15177135 -2.08762214 24.75 2.015625 C26.42917749 4.8192517 27.75352859 7.63495497 28.9765625 10.66308594 C31.09190836 15.49326021 33.88316298 19.99132989 36.5 24.5625 C37.71991536 26.74732203 38.93729712 28.93356033 40.15234375 31.12109375 C44.0733694 38.15075282 48.06133497 45.14079341 52.0625 52.125 C57.2220932 61.13802756 62.37634803 70.15397376 67.5 79.1875 C68.05824463 80.16799316 68.61648926 81.14848633 69.19165039 82.15869141 C69.69559326 83.04862793 70.19953613 83.93856445 70.71875 84.85546875 C71.38293945 86.02565552 71.38293945 86.02565552 72.06054688 87.21948242 C73 89 73 89 73 90 C65.74 90 58.48 90 51 90 C50.06800781 88.2571875 49.13601562 86.514375 48.17578125 84.71875 C36.24033422 62.41150668 24.22956622 40.14774072 12 18 C9.76108534 20.85132367 7.96011592 23.74304189 6.25 26.9375 C5.72881592 27.90623047 5.20763184 28.87496094 4.6706543 29.87304688 C3.84368042 31.42088867 3.84368042 31.42088867 3 33 C1.84040875 35.1565539 0.68024212 37.3127985 -0.48046875 39.46875 C-1.35711182 41.09876953 -1.35711182 41.09876953 -2.25146484 42.76171875 C-4.91202642 47.68906988 -7.60919741 52.59600087 -10.3125 57.5 C-10.78623047 58.35980469 -11.25996094 59.21960938 -11.74804688 60.10546875 C-12.83135353 62.07068771 -13.91527513 64.03556359 -15 66 C-7.60368282 63.2626112 -0.22340349 60.49181874 7.11328125 57.59765625 C8.14960693 57.18894287 9.18593262 56.78022949 10.25366211 56.35913086 C12.32206485 55.54131499 14.38930365 54.72054873 16.45532227 53.89672852 C17.40592529 53.52088623 18.35652832 53.14504395 19.3359375 52.7578125 C20.18720215 52.4189502 21.0384668 52.08008789 21.91552734 51.73095703 C24 51 24 51 26 51 C26 56.94 26 62.88 26 69 C18.89433593 72.04379773 11.76818086 75.031096 4.61938477 77.97216797 C2.19988042 78.97616361 -0.21380161 79.99432902 -2.62084961 81.02783203 C-18.7972917 87.9591495 -32.33130818 91.76504272 -50 90 C-48.6027689 86.30186644 -46.93435305 82.90404002 -45.015625 79.44921875 C-44.41741943 78.37075684 -43.81921387 77.29229492 -43.20288086 76.18115234 C-42.55215348 75.0164714 -41.90118697 73.85192404 -41.25 72.6875 C-40.91775421 72.09108704 -40.58550842 71.49467407 -40.24319458 70.88018799 C-35.01875193 61.5031112 -29.66040288 52.21034548 -24.22192383 42.95556641 C-17.64104294 31.734572 -11.31612395 20.37149116 -5 9 C-4.50129395 8.10265137 -4.00258789 7.20530273 -3.48876953 6.28076172 C-2.32550001 4.18736655 -1.16256141 2.09378848 0 0 Z " fill="#000000" transform="translate(59,37)"/>
<path d="M0 0 C20.93947218 -2.24883757 20.93947218 -2.24883757 26.8828125 2.5078125 C29.5231646 5.17155961 31.70860189 8.12958123 33.79736328 11.23828125 C35.62288188 13.91244735 37.72552769 16.34008022 39.8125 18.8125 C40.52148438 19.69292969 41.23046875 20.57335937 41.9609375 21.48046875 C46.77262434 28.05733541 46.77262434 28.05733541 53 33 C53.23589844 32.44441406 53.47179687 31.88882813 53.71484375 31.31640625 C55.3127752 28.43624409 57.305005 26.33630924 59.5625 23.9375 C63.8273568 19.32800831 67.86129012 14.60007412 71.796875 9.703125 C72.52390625 8.81109375 73.2509375 7.9190625 74 7 C74.39010254 6.38310303 74.78020508 5.76620605 75.18212891 5.13061523 C77.35290179 2.00484452 78.81949085 0.24962212 82.63476562 -0.55712891 C85.74333935 -0.68894302 88.76878404 -0.6115552 91.875 -0.4375 C92.94492187 -0.40591797 94.01484375 -0.37433594 95.1171875 -0.34179688 C97.74763365 -0.25959543 100.37237854 -0.14477691 103 0 C101.67143806 2.92643237 100.20435823 5.0700763 97.98828125 7.390625 C97.39901855 8.01340332 96.80975586 8.63618164 96.20263672 9.27783203 C95.26701904 10.25405518 95.26701904 10.25405518 94.3125 11.25 C93.02904981 12.60592129 91.74648604 13.96268222 90.46484375 15.3203125 C89.5519458 16.28565918 89.5519458 16.28565918 88.62060547 17.27050781 C86.29340215 19.7540734 84.06887471 22.31725868 81.8515625 24.8984375 C78.6987861 28.47690523 75.43267457 31.95268052 72.17333984 35.43408203 C69.61330224 38.18393706 67.17386857 40.93276078 65 44 C66.32972165 46.90121088 67.8094802 49.12744003 69.9375 51.5 C70.55496094 52.1909375 71.17242188 52.881875 71.80859375 53.59375 C74.84674988 56.92976457 77.89499065 60.25644618 80.95092773 63.57617188 C84.0570925 66.95445223 87.09983004 70.37730915 90.09765625 73.8515625 C91.66538645 75.62209968 93.25681402 77.35825579 94.87109375 79.0859375 C95.37640625 79.62863281 95.88171875 80.17132813 96.40234375 80.73046875 C97.41245176 81.81254375 98.42667809 82.89079141 99.4453125 83.96484375 C103 87.77841605 103 87.77841605 103 90 C85.00344635 92.20504427 85.00344635 92.20504427 78.82714844 88.80322266 C75.02785862 85.68088636 72.13615017 81.87148368 69.32128906 77.86425781 C67.3836151 75.13031872 65.22368003 72.62310604 63.0625 70.0625 C62.36382813 69.19109375 61.66515625 68.3196875 60.9453125 67.421875 C58.36991466 64.21555641 55.69322508 61.1075674 53 58 C48.64550599 59.57876205 46.22143608 62.97448914 43.375 66.4375 C42.31132396 67.70692719 41.24619798 68.97514073 40.1796875 70.2421875 C39.64827148 70.87479492 39.11685547 71.50740234 38.56933594 72.15917969 C35.52805399 75.7265826 32.33828492 79.15575514 29.15625 82.59765625 C26.9058929 84.92508004 26.9058929 84.92508004 25.453125 87.7890625 C21.35144791 91.48579695 16.54686309 90.5211643 11.25 90.3125 C10.17105469 90.28994141 9.09210937 90.26738281 7.98046875 90.24414062 C5.3189065 90.1852565 2.66015772 90.10307001 0 90 C3.09640107 85.75556751 6.11072198 81.62451702 9.9375 78 C13.14069498 74.88141772 16.1053818 71.65324038 19.01953125 68.265625 C21.46605716 65.46683796 23.9807533 62.73308874 26.5 60 C30.74021394 55.39592497 34.91388639 50.74156528 39 46 C37.67143806 43.07356763 36.20435823 40.9299237 33.98828125 38.609375 C33.39901855 37.98659668 32.80975586 37.36381836 32.20263672 36.72216797 C31.5788916 36.07135254 30.95514648 35.42053711 30.3125 34.75 C29.02904981 33.39407871 27.74648604 32.03731778 26.46484375 30.6796875 C25.85624512 30.03612305 25.24764648 29.39255859 24.62060547 28.72949219 C22.29142593 26.24381761 20.06451715 23.67914276 17.84765625 21.09375 C16.27769745 19.31468464 14.68007736 17.57550059 13.05859375 15.84375 C12.52508301 15.27285645 11.99157227 14.70196289 11.44189453 14.11376953 C10.38534306 12.98629581 9.32532177 11.86205975 8.26123047 10.74169922 C5.09193475 7.35662167 2.47042415 3.92673624 0 0 Z " fill="#000000" transform="translate(521,37)"/>
<path d="M0 0 C5.94 0 11.88 0 18 0 C18 29.7 18 59.4 18 90 C12.06 90 6.12 90 0 90 C0 60.3 0 30.6 0 0 Z " fill="#000000" transform="translate(488,37)"/>
</svg>
